HIERARCHY
ROOT hip
{
	OFFSET 0.000000 0.000000 0.000000 
	CHANNELS 6 Xposition Yposition Zposition Xrotation Zrotation Yrotation
	JOINT abdomen
	{
		OFFSET 0.000000 3.402643 0.000000 
		CHANNELS 3 Xrotation Zrotation Yrotation
		JOINT chest
		{
			OFFSET 0.000000 8.438565 -0.680529 
			CHANNELS 3 Xrotation Zrotation Yrotation
			JOINT neck
			{
				OFFSET 0.000000 10.207942 -0.272212 
				CHANNELS 3 Xrotation Zrotation Yrotation
				JOINT head
				{
					OFFSET 0.000000 3.130431 0.000000 
					CHANNELS 3 Xrotation Zrotation Yrotation
					End Site
					{
						OFFSET 0.000000 3.130435 0.000000 
					}
				}
			}
			JOINT lCollar
			{
				OFFSET 3.470700 6.669187 -0.816635 
				CHANNELS 3 Yrotation Zrotation Xrotation
				JOINT lShldr
				{
					OFFSET 3.198488 0.000000 0.000000 
					CHANNELS 3 Zrotation Yrotation Xrotation
					JOINT lForeArm
					{
						OFFSET 10.139888 0.000000 0.000000 
						CHANNELS 3 Yrotation Zrotation Xrotation
						JOINT lHand
						{
							OFFSET 8.370511 0.000000 0.000000 
							CHANNELS 3 Zrotation Yrotation Xrotation
							End Site
							{
								OFFSET 4.083176 0.000000 0.000000 
							}
						}
					}
				}
			}
			JOINT rCollar
			{
				OFFSET -3.470700 6.669187 -0.816635 
				CHANNELS 3 Yrotation Zrotation Xrotation
				JOINT rShldr
				{
					OFFSET -3.198488 0.000000 0.000000 
					CHANNELS 3 Zrotation Yrotation Xrotation
					JOINT rForeArm
					{
						OFFSET -10.139888 0.000000 0.000000 
						CHANNELS 3 Yrotation Zrotation Xrotation
						JOINT rHand
						{
							OFFSET -8.370511 0.000000 0.000000 
							CHANNELS 3 Zrotation Yrotation Xrotation
							End Site
							{
								OFFSET -4.083176 0.000000 0.000000 
							}
						}
					}
				}
			}
		}
	}
	JOINT lThigh
	{
		OFFSET 5.308129 -1.633274 1.361059 
		CHANNELS 3 Xrotation Zrotation Yrotation
		JOINT lShin
		{
			OFFSET -2.041588 -20.007561 0.000000 
			CHANNELS 3 Xrotation Zrotation Yrotation
			JOINT lFoot
			{
				OFFSET 0.000000 -19.190928 -1.224953 
				CHANNELS 3 Xrotation Yrotation Zrotation
				End Site
				{
					OFFSET 0.000000 -2.449906 4.627600 
				}
			}
		}
	}
	JOINT rThigh
	{
		OFFSET -5.308129 -1.633274 1.361059 
		CHANNELS 3 Xrotation Zrotation Yrotation
		JOINT rShin
		{
			OFFSET 2.041588 -20.007561 0.000000 
			CHANNELS 3 Xrotation Zrotation Yrotation
			JOINT rFoot
			{
				OFFSET 0.000000 -19.190928 -1.224953 
				CHANNELS 3 Xrotation Yrotation Zrotation
				End Site
				{
					OFFSET 0.000000 -2.449906 4.627600 
				}
			}
		}
	}
}
MOTION
Frames: 15
Frame Time: 0.033333
-51.543987 46.395134 -45.276634 -2.246095 0.048791 46.287148 0.000000 0.000000 0.000000 1.943338 5.738907 7.518620 -8.603516 0.000000 0.000000 20.328760 -4.446643 39.566143 -2.957607 -0.090307 -0.002318 -78.520271 -0.536152 -9.488109 -83.524384 -43.901241 -17.436762 43.115807 -14.145109 -0.936099 2.957607 0.090307 -0.002334 78.760666 14.485365 -1.015083 72.001144 28.121199 -5.599290 -45.811619 27.232380 7.900479 0.720868 15.679003 15.050300 1.928559 -1.051954 -4.438337 3.308193 -3.007761 -17.505054 7.806389 -3.417026 -30.972675 2.888359 -3.792619 7.780669 -7.056900 -0.477133 4.073073 
-51.543987 46.395134 -45.275616 -2.255860 0.048790 46.287140 0.000000 0.000000 0.000000 1.933556 5.748701 7.498439 -8.603516 0.000000 0.000000 20.329071 -4.465767 39.591480 -2.957607 -0.090307 -0.002318 -78.553444 -0.439792 -9.430246 -83.510780 -43.830753 -17.431717 43.109589 -14.184851 -0.916528 2.957607 0.090307 -0.002334 78.783974 14.418109 -1.025158 72.009453 28.124819 -5.571289 -45.792156 27.234037 7.910275 0.730398 15.687360 15.071475 1.922860 -1.040430 -4.447788 3.308273 -3.014467 -17.517488 7.831458 -3.418277 -30.962351 2.900360 -3.769946 7.790714 -7.058886 -0.494836 4.075815 
-51.543987 46.395134 -45.274937 -2.255860 0.048790 46.306671 0.000000 0.000000 0.000000 1.923807 5.768253 7.478582 -8.603516 0.000000 0.000000 20.339176 -4.484733 39.606289 -2.957607 -0.090307 -0.002318 -78.547653 -0.371182 -9.459663 -83.508110 -43.851002 -17.450407 43.090111 -14.186510 -0.887138 2.957607 0.090307 -0.002334 78.797546 14.350364 -1.035140 71.978539 28.130674 -5.563668 -45.782425 27.234865 7.890759 0.730403 15.687358 15.071473 1.915842 -1.031676 -4.457385 3.309232 -3.020528 -17.529915 7.831084 -3.418176 -30.972218 2.893783 -3.775198 7.790268 -7.080519 -0.502252 4.061893 
-51.546818 46.395134 -45.271648 -2.255860 0.048790 46.316433 0.000000 0.000000 0.000000 1.914025 5.778046 7.468161 -8.603516 0.000000 0.000000 20.339333 -4.494294 39.614071 -2.957607 -0.090307 -0.002318 -78.571098 -0.294145 -9.460203 -83.487823 -43.858566 -17.432503 43.090992 -14.196239 -0.857842 2.957607 0.090307 -0.002334 78.821541 14.273385 -1.052580 71.956291 28.140690 -5.537788 -45.782425 27.234865 7.871228 0.730578 15.688107 15.061640 1.920200 -1.023164 -4.438003 3.294338 -3.036804 -17.526064 7.821314 -3.398883 -30.989365 2.890782 -3.789726 7.799736 -7.080898 -0.499664 4.052372 
-51.549648 46.395134 -45.268818 -2.265626 0.058548 46.325809 0.000000 0.000000 0.000000 1.914091 5.797567 7.450264 -8.603516 0.000000 0.000000 20.349598 -4.522819 39.626892 -2.957607 -0.090307 -0.002318 -78.596695 -0.178148 -9.470635 -83.457909 -43.875896 -17.429808 43.073269 -14.217353 -0.818688 2.957607 0.090307 -0.002334 78.849899 14.118416 -1.079957 71.938759 28.153334 -5.510223 -45.773743 27.245417 7.841949 0.740293 15.697212 15.072979 1.914625 -1.011748 -4.437867 3.298358 -3.048754 -17.550604 7.830888 -3.389244 -30.977882 2.909343 -3.787831 7.790598 -7.082012 -0.507043 4.049078 
-51.552597 46.392303 -45.263153 -2.275392 0.068305 46.335178 0.000000 0.000000 0.000000 1.914158 5.817087 7.441151 -8.603516 0.000000 0.000000 20.359865 -4.551341 39.629932 -2.957607 -0.090307 -0.002318 -78.613678 -0.032295 -9.461596 -83.421829 -43.872135 -17.404545 43.042290 -14.200381 -0.759952 2.957607 0.090307 -0.002334 78.880341 13.924436 -1.107438 71.917397 28.151941 -5.476572 -45.773743 27.245417 7.793120 0.769498 15.705762 15.095642 1.904075 -1.011440 -4.437222 3.310797 -3.052469 -17.560627 7.852989 -3.367630 -30.964512 2.896081 -3.798990 7.780508 -7.103764 -0.520814 4.043101 
-51.558262 46.386639 -45.260323 -2.285158 0.068305 46.344929 0.000000 0.000000 0.000000 1.914258 5.846368 7.432364 -8.603516 0.000000 0.000000 20.370138 -4.579860 39.632973 -2.957607 -0.090307 -0.002318 -78.620567 0.124065 -9.403691 -83.382385 -43.888130 -17.388233 43.040531 -14.180925 -0.701358 2.957607 0.090307 -0.002334 78.940788 13.702576 -1.096220 71.869354 28.124321 -5.450985 -45.794254 27.253481 7.724730 0.778478 15.714858 15.107103 1.901913 -0.991600 -4.446982 3.296133 -3.072062 -17.579006 7.874017 -3.358371 -30.972551 2.895880 -3.798651 7.790273 -7.119299 -0.549526 4.008843 
-51.561096 46.380974 -45.257492 -2.285159 0.087821 46.353916 0.000000 0.000000 0.000000 1.924141 5.865854 7.414483 -8.603516 0.000000 0.000000 20.360821 -4.608705 39.647324 -2.957607 -0.090307 -0.002318 -78.646141 0.259877 -9.355690 -83.332176 -43.901844 -17.338812 43.046745 -14.141183 -0.640419 2.957607 0.090307 -0.002334 78.982101 13.469944 -1.075104 71.814941 28.104250 -5.410797 -45.826588 27.280153 7.627028 0.788315 15.714952 15.107845 1.894980 -0.982442 -4.456581 3.298722 -3.090265 -17.585247 7.883110 -3.348633 -30.970940 2.897894 -3.821523 7.800107 -7.138248 -0.554734 4.028134 
-51.566761 46.375195 -45.254654 -2.294925 0.097578 46.363277 0.000000 0.000000 0.000000 1.924242 5.895135 7.425233 -8.603516 0.000000 0.000000 20.371101 -4.637223 39.630035 -2.957607 -0.090307 -0.002318 -78.653206 0.406276 -9.336856 -83.264114 -43.963844 -17.296240 43.052967 -14.101443 -0.591636 2.957607 0.090307 -0.002334 79.004997 13.226653 -1.080908 71.761322 28.085180 -5.394729 -45.865509 27.276833 7.529311 0.807846 15.724103 15.119937 1.895446 -0.982599 -4.437059 3.290141 -3.105419 -17.611656 7.892104 -3.337924 -30.988930 2.896658 -3.821024 7.829356 -7.128765 -0.551976 4.018584 
-51.572422 46.369526 -45.251823 -2.304692 0.107335 46.343334 0.000000 0.000000 0.000000 1.953764 5.914553 7.438672 -8.603516 0.000000 0.000000 20.371426 -4.656344 39.635822 -2.957607 -0.090307 -0.002318 -78.669830 0.572045 -9.249792 -83.189690 -43.965694 -17.245346 43.070686 -14.080327 -0.533135 2.957607 0.090307 -0.002334 79.047821 12.964766 -1.059941 71.735260 28.080992 -5.358210 -45.943344 27.270199 7.441302 0.819486 15.740360 15.161415 1.895212 -0.982522 -4.446821 3.295361 -3.113887 -17.613754 7.914495 -3.328971 -30.957451 2.896657 -3.821024 7.829355 -7.140269 -0.563749 4.013293 
-51.575256 46.361027 -45.248875 -2.304692 0.107335 46.323803 0.000000 0.000000 0.000000 1.973504 5.943763 7.431926 -8.603516 0.000000 0.000000 20.371588 -4.665905 39.663136 -2.957607 -0.090307 -0.002318 -78.677223 0.738153 -9.192023 -83.125984 -43.969730 -17.234350 43.080425 -14.079499 -0.474588 2.957607 0.090307 -0.002334 79.069275 12.740922 -1.048512 71.701897 28.061687 -5.346554 -45.991989 27.266045 7.343578 0.838639 15.747981 15.193184 1.900637 -0.993843 -4.456719 3.297521 -3.104110 -17.641281 7.930501 -3.328327 -30.927456 2.906919 -3.800764 7.819740 -7.144020 -0.580266 3.984492 
-51.580917 46.355366 -45.243206 -2.304692 0.107335 46.304272 0.000000 0.000000 0.000000 1.993212 5.963213 7.424862 -8.603516 0.000000 0.000000 20.371914 -4.685025 39.698223 -2.957607 -0.090307 -0.002318 -78.694855 0.913519 -9.134428 -83.041130 -43.980618 -17.188951 43.111404 -14.096469 -0.435664 2.957607 0.090307 -0.002334 79.107567 12.557002 -1.007928 71.634254 28.034344 -5.326447 -46.010399 27.254665 7.275191 0.828561 15.775623 15.214436 1.885564 -1.002027 -4.485389 3.314019 -3.087610 -17.644423 7.939843 -3.318666 -30.915966 2.887158 -3.790597 7.839259 -7.153281 -0.560537 3.961391 
-51.586590 46.352531 -45.237549 -2.304692 0.107335 46.284740 0.000000 0.000000 0.000000 2.003102 5.982697 7.407027 -8.603516 0.000000 0.000000 20.372240 -4.704145 39.733318 -2.957607 -0.090307 -0.002318 -78.740616 1.058040 -9.096560 -82.958344 -43.981735 -17.143957 43.145027 -14.142623 -0.408892 2.957607 0.090307 -0.002334 79.114594 12.410610 -0.967032 71.580772 28.014956 -5.305878 -46.030903 27.262730 7.226337 0.808319 15.804696 15.215370 1.919064 -1.022756 -4.486808 3.317189 -3.074239 -17.650089 7.937027 -3.291123 -30.911856 2.882052 -3.781676 7.848722 -7.155271 -0.569913 3.946514 
-51.589420 46.352531 -45.231880 -2.294925 0.097578 46.255852 0.000000 0.000000 0.000000 2.022776 5.992384 7.380110 -8.603516 0.000000 0.000000 20.372240 -4.704145 39.782143 -2.957607 -0.090307 -0.002318 -78.776306 1.183347 -9.097394 -82.907135 -43.966667 -17.127913 43.148548 -14.181537 -0.369834 2.957607 0.090307 -0.002334 79.120781 12.293578 -0.967245 71.563065 28.027407 -5.282959 -46.050362 27.261068 7.187249 0.779184 15.844120 15.206358 1.949294 -1.052429 -4.458815 3.324065 -3.072672 -17.648790 7.937745 -3.291288 -30.892101 2.871325 -3.789800 7.858350 -7.155357 -0.560152 3.929529 
-51.595203 46.349583 -45.226219 -2.294924 0.087820 46.236721 0.000000 0.000000 0.000000 2.032668 6.011868 7.362290 -8.603516 0.000000 0.000000 20.382202 -4.713539 39.818417 -2.957607 -0.090307 -0.002318 -78.810524 1.279393 -9.098310 -82.866089 -43.953407 -17.135225 43.163574 -14.239077 -0.340587 2.957607 0.090307 -0.002334 79.123177 12.244789 -0.955495 71.541023 28.037691 -5.262300 -46.067719 27.239964 7.167691 0.749848 15.882746 15.207160 1.973436 -1.070104 -4.459984 3.328130 -3.059170 -17.654335 7.931829 -3.269974 -30.889202 2.868753 -3.803774 7.868569 -7.173360 -0.542838 3.926783 
